<svg width="70" height="33" viewBox="0 0 70 33" fill="none" xmlns="http://www.w3.org/2000/svg">
<path d="M48.0765 0.5C50.0278 0.500014 51.86 1.54875 52.8226 3.19824C52.9396 3.39871 54.8014 6.61007 56.6351 9.77344C57.5517 11.3549 58.4607 12.924 59.1409 14.0977C59.481 14.6844 59.7644 15.1724 59.9622 15.5137C60.0611 15.6843 60.1388 15.8189 60.1917 15.9102C60.218 15.9556 60.2386 15.9901 60.2523 16.0137L60.2718 16.0479L60.2728 16.0488V16.0498L61.2054 17.6592V0.641602H64.1888V26.4453C64.1888 26.6925 63.9881 26.8914 63.7454 26.8916C63.5891 26.8916 63.439 26.8025 63.3694 26.6836C63.2732 26.5169 60.0989 21.0274 57.0296 15.7178L50.6829 4.74121C50.1911 3.89882 49.2774 3.37988 48.2991 3.37988C46.769 3.38004 45.5286 4.62704 45.5286 6.15723V26.4453C45.5286 26.6922 45.3275 26.8916 45.0843 26.8916C44.9671 26.8916 44.8535 26.8418 44.7747 26.7666L44.7093 26.6836C44.6267 26.5409 41.4432 21.0388 38.3646 15.7168C35.1259 10.1186 32.0656 4.83026 32.015 4.74316V4.74219C31.523 3.89904 30.6081 3.37988 29.6292 3.37988C28.0998 3.3801 26.8587 4.62699 26.8587 6.15723V26.0312C26.8587 26.1433 26.7999 26.3076 26.6683 26.4482C26.5412 26.584 26.3847 26.6572 26.2318 26.6572H16.1263C10.4379 26.6572 5.80697 22.0167 5.80695 16.3115C5.80695 10.6063 10.4379 5.96582 16.1263 5.96582H20.8148V8.95898H16.1683C12.1161 8.95924 8.83331 12.2522 8.83331 16.3115C8.83333 20.3709 12.1161 23.6638 16.1683 23.6641H22.3128C23.1924 23.6624 23.8065 22.9953 23.8773 22.2246L23.8841 22.0693V6.04785C23.8841 2.98419 26.362 0.500161 29.4153 0.5C31.2445 0.5 32.9694 1.42137 33.971 2.89551L34.1614 3.19824C34.2778 3.39742 36.1399 6.60936 37.9739 9.77344C38.8907 11.355 39.8005 12.924 40.4808 14.0977C40.8208 14.6843 41.1033 15.1724 41.3011 15.5137C41.4 15.6843 41.4777 15.8189 41.5306 15.9102C41.5569 15.9555 41.5775 15.9901 41.5911 16.0137L41.6107 16.0479L41.6116 16.0488V16.0498L42.5443 17.6592V6.04785C42.5443 2.98409 45.023 0.5 48.0765 0.5Z" fill="#9CA0AC" stroke="#9CA0AC"/>
<path d="M16.1309 0.641602H20.8145V3.63477H16.126C9.1511 3.63491 3.47949 9.32258 3.47949 16.3115C3.47969 23.3009 9.15122 28.9881 16.126 28.9883H26.2314C27.8154 28.9883 29.1865 27.6155 29.1865 26.0312V6.15723C29.1865 5.91036 29.387 5.71094 29.6299 5.71094C29.7857 5.71106 29.9352 5.79989 30.0049 5.91895V5.91797C30.055 6.00396 33.254 11.5353 36.3496 16.8857C39.588 22.4837 42.6481 27.7715 42.6992 27.8594L42.7002 27.8604C43.1926 28.7028 44.1059 29.2227 45.085 29.2227C46.6145 29.2224 47.8564 27.9759 47.8564 26.4453V6.15723C47.8564 5.91036 48.0569 5.71094 48.2998 5.71094C48.4561 5.7111 48.606 5.79999 48.6748 5.91797L48.6787 5.92578C48.6809 5.92951 48.6838 5.93502 48.6875 5.94141C48.6951 5.95447 48.7062 5.97281 48.7197 5.99609C48.7467 6.04266 48.7848 6.10935 48.834 6.19434C48.9324 6.36448 49.0743 6.60872 49.252 6.91602C49.6073 7.53058 50.108 8.39758 50.7041 9.42871C51.8964 11.4911 53.4694 14.2106 55.0156 16.8848C58.2517 22.4829 61.3097 27.7722 61.3604 27.8594V27.8604C61.8522 28.7032 62.7663 29.2226 63.7451 29.2227C65.2753 29.2227 66.5166 27.9759 66.5166 26.4453V0.641602H69.5V26.5557C69.4998 29.6189 67.0219 32.1023 63.9688 32.1025C62.0174 32.1025 60.1846 31.0536 59.2217 29.4043C59.1029 29.2008 57.2419 25.9909 55.4092 22.8291C54.4925 21.2476 53.5835 19.6785 52.9033 18.5049C52.5632 17.9181 52.2798 17.4302 52.082 17.0889C51.9831 16.9182 51.9055 16.7837 51.8525 16.6924C51.8264 16.6472 51.8066 16.6124 51.793 16.5889L51.7734 16.5547L51.7715 16.5527L50.8389 14.9434V26.5557C50.8387 29.619 48.3612 32.1025 45.3076 32.1025C43.4783 32.1025 41.7535 31.1811 40.752 29.707L40.5615 29.4043C40.4709 29.2494 38.6091 26.0376 36.7686 22.8623C35.8487 21.2754 34.9343 19.6981 34.25 18.5176C33.9079 17.9273 33.6229 17.4353 33.4238 17.0918C33.3243 16.9201 33.2456 16.7853 33.1924 16.6934C33.1659 16.6476 33.1456 16.6126 33.1318 16.5889L33.1123 16.5547L33.1113 16.5537V16.5527L32.1787 14.9434V26.0273C32.1811 28.0211 31.5921 29.4939 30.6055 30.4688C29.6175 31.4449 28.1693 31.9823 26.334 31.9814H16.1309C7.49958 31.9814 0.500195 24.967 0.5 16.3115C0.5 7.65619 7.49944 0.641624 16.1309 0.641602Z" fill="#9CA0AC" stroke="#9CA0AC"/>
<path d="M3.97928 16.3116C3.97928 23.026 9.42835 28.4883 16.1261 28.4883H26.2317C27.5391 28.4883 28.6863 27.3403 28.6863 26.0315V6.15726C28.6863 5.6356 29.1093 5.21127 29.6297 5.21127C29.9582 5.21127 30.2748 5.38992 30.4367 5.66678C30.487 5.75392 33.6876 11.2859 36.7827 16.6354C40.0217 22.2341 43.081 27.5219 43.1316 27.6087C43.5331 28.2962 44.2811 28.7229 45.0844 28.7229C46.3371 28.7229 47.3561 27.7014 47.3561 26.4456V6.15726C47.3561 5.6356 47.7791 5.21127 48.2995 5.21127C48.628 5.21127 48.9449 5.38992 49.1066 5.66678C49.1586 5.75596 52.3557 11.2868 55.4481 16.6351C58.6845 22.2339 61.7418 27.5219 61.7924 27.6087C62.1936 28.2962 62.9419 28.7229 63.7452 28.7229C64.9979 28.7229 66.0166 27.7014 66.0166 26.4456V0.14209H64.6886V26.4456C64.6886 26.9676 64.2656 27.3919 63.7452 27.3919C63.4166 27.3919 63.1 27.2133 62.9381 26.9364C62.8864 26.8472 59.689 21.3167 56.5971 15.9681C53.3602 10.369 50.3032 5.0813 50.2523 4.99474C49.8511 4.30696 49.1028 3.88001 48.2995 3.88001C47.0468 3.88001 46.0281 4.90177 46.0281 6.15726V26.4456C46.0281 26.9676 45.6048 27.3919 45.0844 27.3919C44.7558 27.3919 44.4392 27.2133 44.2773 26.9364C44.227 26.8496 41.0264 21.3176 37.9314 15.9678C34.6924 10.3691 31.6331 5.0813 31.5825 4.99474C31.1813 4.30696 30.433 3.88001 29.6297 3.88001C28.3772 3.88001 27.3585 4.90177 27.3585 6.15727V26.0315C27.3585 26.5523 26.8663 27.157 26.2317 27.157H16.1261C10.1604 27.157 5.30702 22.2919 5.30702 16.3117C5.30702 10.3315 10.1604 5.46628 16.1261 5.46628H21.3141V4.13501H16.1261C9.42835 4.13501 3.97928 9.59734 3.97928 16.3116Z" fill="white"/>
</svg>
