<svg width="100" height="30" viewBox="0 0 100 30" fill="none" xmlns="http://www.w3.org/2000/svg">
<path d="M19.916 0.5V29.1445H0.5V0.5H19.916ZM2.44238 27.1602H17.9629V2.48633H2.44238V27.1602Z" fill="#9CA0AC" stroke="#9CA0AC"/>
<mask id="path-2-inside-1_1_4041" fill="white">
<path d="M32.5819 10.3354H32.5533C30.9246 7.68263 29.2804 5.33942 27.6221 2.98062H26.3568V13.2987H27.7533V5.89871H27.7674C29.4121 8.56706 31.0553 10.9259 32.7141 13.2987H33.9794V2.98062H32.5819V10.3354ZM42.6628 13.2987L39.4186 2.98062H37.9648L34.4442 13.2987H35.9568L36.8447 10.4831H39.9131L40.7136 13.2987H42.6628ZM37.295 9.21479C37.7025 7.85851 38.1101 6.60776 38.4734 5.01379H38.503C38.9106 6.60726 39.2739 7.85851 39.6523 9.21479H37.295ZM44.3061 13.2987H46.0518V4.36655H48.7287V2.98062H41.6302V4.36655H44.3066V13.2987H44.3061ZM51.0262 2.98062H49.2955V13.2987H51.0262V2.98062ZM56.4096 13.4746C59.0719 13.4746 60.7302 11.0726 60.7302 7.99168C60.7302 5.10273 58.8965 2.80273 56.4096 2.80273C53.9216 2.80273 52.088 5.10273 52.088 7.99168C52.088 11.0731 53.7463 13.4746 56.4096 13.4746ZM56.4096 4.27761C58.1407 4.27761 58.8674 6.09017 58.8674 7.99218C58.8674 9.96706 58.2282 12.0012 56.4096 12.0012C54.591 12.0012 53.9513 9.96756 53.9513 7.99218C53.9513 6.09017 54.6784 4.27761 56.4096 4.27761ZM63.187 5.89871H63.203C64.8463 8.56706 66.4895 10.9259 68.1483 13.2987H69.4136V2.98062H68.0171V10.3354H67.988C66.3593 7.68263 64.7151 5.33942 63.0568 2.98062H61.7915V13.2987H63.187V5.89871ZM72.2779 10.4831H75.3483L76.1483 13.2987H78.097L74.8538 2.98062H73.399L69.8779 13.2987H71.3925L72.2779 10.4831ZM73.9091 5.01379H73.9377C74.3442 6.60726 74.7081 7.85851 75.0875 9.21479H72.7292C73.1377 7.85851 73.5437 6.60726 73.9091 5.01379ZM83.7844 11.9123H80.3377V2.98062H78.6061V13.2987H83.7849V11.9123H83.7844ZM31.1588 25.0997C30.7945 25.2917 30.4025 25.351 29.9372 25.351C28.4392 25.351 26.9844 23.9058 26.9844 21.4595C26.9844 19.1163 28.2498 17.6269 30.1121 17.6269C30.7814 17.6269 31.5086 17.8771 31.9739 18.1716L32.5407 16.949C31.9593 16.5058 31.0136 16.1525 30.0679 16.1525C27.0136 16.1525 25.1221 18.6143 25.1221 21.4294C25.1221 24.4661 27.0136 26.8248 30.0091 26.8248C30.9985 26.8248 31.9734 26.561 32.905 26.1907V21.9299H31.1588V25.0997ZM36.2347 21.9309H39.0865V20.546H36.2347V17.7158H39.1447V16.3304H34.49V26.6485H39.6684V25.2615H36.2347V21.9309ZM44.5272 16.153C42.0392 16.153 40.2071 18.4525 40.2071 21.3419C40.2071 24.4223 41.8648 26.8253 44.5272 26.8253C47.189 26.8253 48.8468 24.4223 48.8468 21.3419C48.8468 18.4525 47.0141 16.153 44.5272 16.153ZM44.5272 25.351C42.7081 25.351 42.0684 23.3168 42.0684 21.3414C42.0684 19.4394 42.7955 17.6264 44.5272 17.6264C46.2578 17.6264 46.9849 19.4389 46.9849 21.3414C46.9849 23.3168 46.3458 25.351 44.5272 25.351ZM55.4804 25.0997C55.1171 25.2917 54.7236 25.351 54.2583 25.351C52.7598 25.351 51.305 23.9058 51.305 21.4595C51.305 19.1163 52.5709 17.6269 54.4337 17.6269C55.1025 17.6269 55.8302 17.8771 56.294 18.1716L56.8618 16.949C56.2804 16.5058 55.3342 16.1525 54.388 16.1525C51.3347 16.1525 49.4437 18.6143 49.4437 21.4294C49.4437 24.4661 51.3347 26.8248 54.3317 26.8248C55.3196 26.8248 56.294 26.561 57.2262 26.1907V21.9299H55.4804V25.0997ZM64.703 19.3083C64.703 17.3022 63.495 16.3304 61.5468 16.3304H58.8262V26.6485H60.5714V22.757H61.3568L63.0005 26.6485H64.993L62.9432 22.3731C64.0618 21.7691 64.703 20.546 64.703 19.3083ZM61.299 21.4299C61.1236 21.4449 60.7156 21.46 60.5709 21.4746V17.7163H61.3432C62.3744 17.7163 62.9558 18.3193 62.9558 19.3811C62.9558 20.7661 62.1282 21.3862 61.299 21.4299ZM68.5432 16.3304L65.0221 26.6485H66.5342L67.4221 23.8324H70.4915L71.2935 26.6485H73.2412L69.997 16.3304H68.5432ZM67.8744 22.5661C68.2814 21.2088 68.6885 19.956 69.0523 18.3645H69.0819C69.4885 19.956 69.8523 21.2088 70.2312 22.5661H67.8744ZM86.0136 20.2952H82.391V16.3304H80.6598V26.6485H82.391V21.6801H86.0136V26.6485H87.7583V16.3585H86.0136V20.2952ZM89.4307 26.6475H91.1613V16.3304H89.4307V26.6475ZM97.2714 25.351C95.5839 25.351 94.1578 23.9058 94.1578 21.4595C94.1578 19.1163 95.4538 17.6269 97.2277 17.6269C97.897 17.6269 98.5955 17.9359 99.0176 18.2012L99.5699 16.9495C98.9734 16.5364 98.1307 16.153 97.2282 16.153C94.188 16.153 92.3111 18.6148 92.3111 21.4299C92.3111 24.4666 94.2025 26.8253 97.2 26.8253C98.0432 26.8253 98.9739 26.4862 99.4975 26.1183L99.0181 24.8354C98.5669 25.1299 97.9407 25.351 97.2714 25.351ZM76.5136 16.3304H73.795V26.6485H75.5407V22.757H76.3251C78.4066 22.757 79.6709 21.046 79.6709 19.3083C79.6704 17.3022 78.4643 16.3304 76.5136 16.3304ZM76.2669 21.4299C76.0925 21.4434 75.6714 21.4575 75.5402 21.4711V17.7158H76.3246C77.3437 17.7158 77.9257 18.3188 77.9257 19.3806C77.9252 20.7661 77.096 21.3862 76.2669 21.4299Z"/>
</mask>
<path d="M32.5819 10.3354H32.5533C30.9246 7.68263 29.2804 5.33942 27.6221 2.98062H26.3568V13.2987H27.7533V5.89871H27.7674C29.4121 8.56706 31.0553 10.9259 32.7141 13.2987H33.9794V2.98062H32.5819V10.3354ZM42.6628 13.2987L39.4186 2.98062H37.9648L34.4442 13.2987H35.9568L36.8447 10.4831H39.9131L40.7136 13.2987H42.6628ZM37.295 9.21479C37.7025 7.85851 38.1101 6.60776 38.4734 5.01379H38.503C38.9106 6.60726 39.2739 7.85851 39.6523 9.21479H37.295ZM44.3061 13.2987H46.0518V4.36655H48.7287V2.98062H41.6302V4.36655H44.3066V13.2987H44.3061ZM51.0262 2.98062H49.2955V13.2987H51.0262V2.98062ZM56.4096 13.4746C59.0719 13.4746 60.7302 11.0726 60.7302 7.99168C60.7302 5.10273 58.8965 2.80273 56.4096 2.80273C53.9216 2.80273 52.088 5.10273 52.088 7.99168C52.088 11.0731 53.7463 13.4746 56.4096 13.4746ZM56.4096 4.27761C58.1407 4.27761 58.8674 6.09017 58.8674 7.99218C58.8674 9.96706 58.2282 12.0012 56.4096 12.0012C54.591 12.0012 53.9513 9.96756 53.9513 7.99218C53.9513 6.09017 54.6784 4.27761 56.4096 4.27761ZM63.187 5.89871H63.203C64.8463 8.56706 66.4895 10.9259 68.1483 13.2987H69.4136V2.98062H68.0171V10.3354H67.988C66.3593 7.68263 64.7151 5.33942 63.0568 2.98062H61.7915V13.2987H63.187V5.89871ZM72.2779 10.4831H75.3483L76.1483 13.2987H78.097L74.8538 2.98062H73.399L69.8779 13.2987H71.3925L72.2779 10.4831ZM73.9091 5.01379H73.9377C74.3442 6.60726 74.7081 7.85851 75.0875 9.21479H72.7292C73.1377 7.85851 73.5437 6.60726 73.9091 5.01379ZM83.7844 11.9123H80.3377V2.98062H78.6061V13.2987H83.7849V11.9123H83.7844ZM31.1588 25.0997C30.7945 25.2917 30.4025 25.351 29.9372 25.351C28.4392 25.351 26.9844 23.9058 26.9844 21.4595C26.9844 19.1163 28.2498 17.6269 30.1121 17.6269C30.7814 17.6269 31.5086 17.8771 31.9739 18.1716L32.5407 16.949C31.9593 16.5058 31.0136 16.1525 30.0679 16.1525C27.0136 16.1525 25.1221 18.6143 25.1221 21.4294C25.1221 24.4661 27.0136 26.8248 30.0091 26.8248C30.9985 26.8248 31.9734 26.561 32.905 26.1907V21.9299H31.1588V25.0997ZM36.2347 21.9309H39.0865V20.546H36.2347V17.7158H39.1447V16.3304H34.49V26.6485H39.6684V25.2615H36.2347V21.9309ZM44.5272 16.153C42.0392 16.153 40.2071 18.4525 40.2071 21.3419C40.2071 24.4223 41.8648 26.8253 44.5272 26.8253C47.189 26.8253 48.8468 24.4223 48.8468 21.3419C48.8468 18.4525 47.0141 16.153 44.5272 16.153ZM44.5272 25.351C42.7081 25.351 42.0684 23.3168 42.0684 21.3414C42.0684 19.4394 42.7955 17.6264 44.5272 17.6264C46.2578 17.6264 46.9849 19.4389 46.9849 21.3414C46.9849 23.3168 46.3458 25.351 44.5272 25.351ZM55.4804 25.0997C55.1171 25.2917 54.7236 25.351 54.2583 25.351C52.7598 25.351 51.305 23.9058 51.305 21.4595C51.305 19.1163 52.5709 17.6269 54.4337 17.6269C55.1025 17.6269 55.8302 17.8771 56.294 18.1716L56.8618 16.949C56.2804 16.5058 55.3342 16.1525 54.388 16.1525C51.3347 16.1525 49.4437 18.6143 49.4437 21.4294C49.4437 24.4661 51.3347 26.8248 54.3317 26.8248C55.3196 26.8248 56.294 26.561 57.2262 26.1907V21.9299H55.4804V25.0997ZM64.703 19.3083C64.703 17.3022 63.495 16.3304 61.5468 16.3304H58.8262V26.6485H60.5714V22.757H61.3568L63.0005 26.6485H64.993L62.9432 22.3731C64.0618 21.7691 64.703 20.546 64.703 19.3083ZM61.299 21.4299C61.1236 21.4449 60.7156 21.46 60.5709 21.4746V17.7163H61.3432C62.3744 17.7163 62.9558 18.3193 62.9558 19.3811C62.9558 20.7661 62.1282 21.3862 61.299 21.4299ZM68.5432 16.3304L65.0221 26.6485H66.5342L67.4221 23.8324H70.4915L71.2935 26.6485H73.2412L69.997 16.3304H68.5432ZM67.8744 22.5661C68.2814 21.2088 68.6885 19.956 69.0523 18.3645H69.0819C69.4885 19.956 69.8523 21.2088 70.2312 22.5661H67.8744ZM86.0136 20.2952H82.391V16.3304H80.6598V26.6485H82.391V21.6801H86.0136V26.6485H87.7583V16.3585H86.0136V20.2952ZM89.4307 26.6475H91.1613V16.3304H89.4307V26.6475ZM97.2714 25.351C95.5839 25.351 94.1578 23.9058 94.1578 21.4595C94.1578 19.1163 95.4538 17.6269 97.2277 17.6269C97.897 17.6269 98.5955 17.9359 99.0176 18.2012L99.5699 16.9495C98.9734 16.5364 98.1307 16.153 97.2282 16.153C94.188 16.153 92.3111 18.6148 92.3111 21.4299C92.3111 24.4666 94.2025 26.8253 97.2 26.8253C98.0432 26.8253 98.9739 26.4862 99.4975 26.1183L99.0181 24.8354C98.5669 25.1299 97.9407 25.351 97.2714 25.351ZM76.5136 16.3304H73.795V26.6485H75.5407V22.757H76.3251C78.4066 22.757 79.6709 21.046 79.6709 19.3083C79.6704 17.3022 78.4643 16.3304 76.5136 16.3304ZM76.2669 21.4299C76.0925 21.4434 75.6714 21.4575 75.5402 21.4711V17.7158H76.3246C77.3437 17.7158 77.9257 18.3188 77.9257 19.3806C77.9252 20.7661 77.096 21.3862 76.2669 21.4299Z" fill="#9CA0AC" stroke="#9CA0AC" stroke-width="2" mask="url(#path-2-inside-1_1_4041)"/>
</svg>
