<svg width="70" height="37" viewBox="0 0 70 37" fill="none" xmlns="http://www.w3.org/2000/svg">
<path d="M13.9246 18.9138L17.0458 10.5597L17.1747 10.5874L16.6302 18.9138H21.3444L28.4126 0.0665608H24.0686L20.8879 8.53583L20.7589 8.5081L21.3056 0.0665608H16.6489L9.58069 18.9138H13.9246Z" fill="#9CA0AC" stroke="#9CA0AC"/>
<mask id="path-2-inside-1_1_4072" fill="white">
<path d="M21.9727 18.9805L29.091 -4.68214e-05H33.5774L26.459 18.9805H21.9727Z"/>
</mask>
<path d="M21.9727 18.9805L29.091 -4.68214e-05H33.5774L26.459 18.9805H21.9727Z" fill="#9CA0AC"/>
<path d="M29.091 -4.68214e-05L28.9662 -0.0468669L28.9987 -0.13338H29.091V-4.68214e-05ZM33.5774 -4.68214e-05V-0.13338H33.7698L33.7022 0.0467732L33.5774 -4.68214e-05ZM26.459 18.9805L26.5838 19.0273L26.5514 19.1138H26.459V18.9805ZM21.8478 18.9337L28.9662 -0.0468669L29.2159 0.0467732L22.0975 19.0273L21.8478 18.9337ZM29.091 -0.13338H33.5774V0.133287H29.091V-0.13338ZM33.7022 0.0467732L26.5838 19.0273L26.3341 18.9337L33.4525 -0.0468669L33.7022 0.0467732ZM26.459 19.1138H21.9727V18.8472H26.459V19.1138Z" fill="#9CA0AC" mask="url(#path-2-inside-1_1_4072)"/>
<path d="M2.05117 34.0571C4.56418 36.2274 7.39104 36.6712 10.1315 36.3564C12.8747 36.0413 15.5265 34.9665 17.6849 34.1031C19.8406 33.2408 32.8381 27.6336 45.2984 22.241C51.5282 19.5449 57.6233 16.9027 62.1608 14.9345C64.4295 13.9505 66.3089 13.1349 67.6211 12.5654C68.2772 12.2806 68.7915 12.0573 69.1418 11.9052C69.3169 11.8292 69.4511 11.771 69.5414 11.7318C69.5866 11.7122 69.6208 11.6972 69.6437 11.6873C69.6552 11.6823 69.6639 11.6786 69.6697 11.6761C69.6725 11.6748 69.6747 11.6738 69.6762 11.6732C69.6764 11.6731 69.6766 11.673 69.6768 11.6729C69.7862 11.6181 69.8578 11.5623 69.8973 11.515C69.9388 11.4653 69.9343 11.4397 69.9314 11.433C69.9277 11.4245 69.9081 11.4005 69.8341 11.3912C69.7723 11.3834 69.6847 11.3879 69.5704 11.4125L69.5198 11.4244C69.4035 11.4534 56.4281 14.9686 43.4796 18.4771C37.0054 20.2313 30.5386 21.9838 25.6902 23.2977C23.2661 23.9546 21.2466 24.5019 19.8331 24.8849C19.1263 25.0764 18.571 25.227 18.1924 25.3296C18.0032 25.3809 17.8581 25.4201 17.7603 25.4466C17.7114 25.4599 17.6744 25.47 17.6496 25.4767C17.6372 25.4801 17.6277 25.4826 17.6215 25.4843C17.6184 25.4851 17.616 25.4858 17.6145 25.4862C17.6137 25.4864 17.613 25.4865 17.6126 25.4866C14.3195 26.411 10.7819 25.8697 8.74609 23.7212C6.76619 21.6317 6.22996 18.0485 8.6737 12.8887C5.66397 16.4742 2.78553 20.5875 1.23919 24.3671C-0.367775 28.2949 -0.525642 31.8317 2.05117 34.0571Z" fill="#9CA0AC" stroke="#9CA0AC"/>
<path d="M31.698 18.9138L34.6962 11.0194L34.8251 11.0414L35.0299 18.9137L48.6837 18.8841L49.9464 15.366H44.7111L44.7447 15.2761L46.4643 10.6748L46.4805 10.6314H50.7944L52.0715 7.22737H47.7581L47.7913 7.13765L49.2702 3.14013L49.2863 3.09664H53.8307L54.9854 0.0665608H41.4246L36.7437 5.73661L36.6301 5.67034L38.7658 0.0665608H34.365L27.3538 18.9138H31.698ZM39.4784 17.7386L39.3493 17.7171L39.0618 7.82424L39.0611 7.79729L39.0792 7.77737L45.8622 0.329972L45.974 0.398201L39.4784 17.7386Z" fill="#9CA0AC" stroke="#9CA0AC"/>
</svg>
